<svg width="173" height="18" viewBox="0 0 173 18" fill="none" xmlns="http://www.w3.org/2000/svg">
<g clip-path="url(#clip0_118_517)">
<path d="M19.8203 3.03662L13.2727 15.6396H10.2103L9.12921 7.15991L4.65335 15.6396H1.57478L0 3.03662H2.83009L3.92727 11.8938L8.58385 3.03662H11.2397L12.3014 11.966L16.9741 3.03662H19.8235H19.8203Z" fill="black"/>
<path d="M27.3235 12.9378H21.5536L19.9433 15.6396H16.8809L24.9 3.03662H27.7301L30.7731 15.6396H27.9076L27.3235 12.9378ZM26.8459 10.7218L25.8003 5.85989L22.8799 10.7218H26.8426H26.8459Z" fill="black"/>
<path d="M36.0135 5.41342H32.0508L32.5284 3.03662H43.3227L42.8451 5.41342H38.8985L36.8816 15.6396H34.016L36.0168 5.41342H36.0135Z" fill="black"/>
<path d="M44.8612 3.03662H50.047C53.871 3.03662 56.1525 5.072 56.1525 8.2925C56.1525 12.7408 53.019 15.6396 48.4367 15.6396H42.3828L44.8612 3.03662ZM48.5238 13.2431C51.4959 13.2431 53.2482 11.1913 53.2482 8.45336C53.2482 6.58213 52.0638 5.42984 49.7275 5.42984H47.2685L45.7292 13.2431H48.527H48.5238Z" fill="black"/>
<path d="M61.8683 5.37731L61.3358 8.11523H67.0864L66.6443 10.3837H60.8744L60.3096 13.2989H67.0702L66.5926 15.6396H57.002L59.4803 3.03662H68.8419L68.3643 5.37731H61.8683Z" fill="black"/>
<path d="M73.7607 5.37731L73.1056 8.70943H78.8561L78.3785 11.0501H72.6635L71.7599 15.6396H68.875L71.3533 3.03662H80.7149L80.2373 5.37731H73.7607Z" fill="black"/>
<path d="M93.4375 10.3837C93.4375 6.07985 96.5354 2.82324 101.137 2.82324C103.332 2.82324 105.119 3.61441 106.003 5.0556L103.932 6.78239C103.296 5.82707 102.302 5.30509 100.94 5.30509C98.1457 5.30509 96.3386 7.48492 96.3386 10.2031C96.3386 12.1105 97.5778 13.3711 99.8076 13.3711C101.063 13.3711 102.179 12.9214 103.099 11.9135L104.797 13.6764C103.486 15.2259 101.683 15.8563 99.5591 15.8563C95.7706 15.8563 93.4375 13.6239 93.4375 10.3837Z" fill="black"/>
<path d="M110.461 5.41342H106.498L106.976 3.03662H117.77L117.292 5.41342H113.346L111.329 15.6396H108.463L110.464 5.41342H110.461Z" fill="black"/>
<path d="M117.469 11.4441C117.469 11.0107 117.524 10.561 117.611 10.0948L118.992 3.03662H121.877L120.496 10.039C120.425 10.4362 120.389 10.7776 120.389 11.1026C120.389 12.6325 121.238 13.3711 122.777 13.3711C124.51 13.3711 125.52 12.3994 125.998 10.039L127.379 3.03662H130.193L128.796 10.2195C128.053 13.9456 125.946 15.8562 122.461 15.8562C119.347 15.8562 117.472 14.1623 117.472 11.4441H117.469Z" fill="black"/>
<path d="M131.414 11.4441C131.414 11.0107 131.469 10.561 131.556 10.0948L132.937 3.03662H135.822L134.441 10.039C134.37 10.4362 134.335 10.7776 134.335 11.1026C134.335 12.6325 135.183 13.3711 136.722 13.3711C138.455 13.3711 139.465 12.3994 139.943 10.039L141.324 3.03662H144.138L142.741 10.2195C141.999 13.9456 139.891 15.8562 136.406 15.8562C133.292 15.8562 131.417 14.1623 131.417 11.4441H131.414Z" fill="black"/>
<path d="M153.34 11.7494L155.499 15.6396H152.472L150.526 12.1105H148.083L147.393 15.6396H144.508L146.986 3.03662H152.03C155.109 3.03662 156.88 4.4778 156.88 6.94324C156.88 9.40868 155.554 11.0468 153.34 11.7494ZM153.976 7.21244C153.976 5.98792 153.127 5.41342 151.659 5.41342H149.394L148.525 9.78949H150.968C152.863 9.78949 153.976 8.88999 153.976 7.21572V7.21244Z" fill="black"/>
<path d="M164.344 6.40486C164.344 5.66621 163.741 5.18035 162.627 5.18035C161.514 5.18035 160.52 5.68591 159.849 6.5493L157.99 5.16393C159.036 3.74245 160.891 2.82324 163.192 2.82324C165.687 2.82324 167.297 4.01164 167.297 5.84677C167.297 8.97863 163.812 9.21172 163.334 11.2668H160.662C161.175 8.58469 164.344 8.27938 164.344 6.40486ZM159.726 14.2706C159.726 13.2628 160.504 12.5438 161.514 12.5438C162.453 12.5438 163.124 13.1906 163.124 14.0211C163.124 15.0126 162.347 15.784 161.356 15.784C160.365 15.784 159.73 15.1012 159.73 14.2706H159.726Z" fill="black"/>
<path d="M167.463 14.2706C167.463 13.2628 168.241 12.5438 169.251 12.5438C170.19 12.5438 170.861 13.1906 170.861 14.0211C170.861 15.0125 170.083 15.784 169.093 15.784C168.102 15.784 167.466 15.1012 167.466 14.2706H167.463ZM169.709 3.03662H173L170.822 11.2635H168.628L169.709 3.03662Z" fill="black"/>
<path d="M86.8914 5.79427L87.3787 15.6396H91.9353L88.0822 0L78.043 15.6396H82.493L86.8914 5.79427Z" fill="#16A34A"/>
<path d="M87.5781 15.6395L84.5996 17.9999L87.0909 5.79419" fill="#16A34A"/>
</g>
<defs>
<clipPath id="clip0_118_517">
<rect width="173" height="18" fill="white"/>
</clipPath>
</defs>
</svg>
