<svg width="390" height="40" viewBox="0 0 390 40" fill="none" xmlns="http://www.w3.org/2000/svg">
<g clip-path="url(#clip0_31_11808)">
<path d="M44.6816 6.74805L29.9211 34.7546H23.0173L20.5803 15.9109L10.4902 34.7546H3.55008L0 6.74805H6.37997L8.85339 26.4307L19.3509 6.74805H25.338L27.7314 26.5912L38.2652 6.74805H44.6889H44.6816Z" fill="#1D1D1B"/>
<path d="M61.5958 28.7506H48.5885L44.9584 34.7546H38.0547L56.1325 6.74805H62.5124L69.3725 34.7546H62.9126L61.5958 28.7506ZM60.5192 23.8263L58.1621 13.022L51.5785 23.8263H60.5119H60.5192Z" fill="#1D1D1B"/>
<path d="M81.1873 12.0298H72.2539L73.3306 6.74805H97.6647L96.588 12.0298H87.691L83.1442 34.7546H76.6842L81.1946 12.0298H81.1873Z" fill="#1D1D1B"/>
<path d="M101.134 6.74805H112.824C121.445 6.74805 126.588 11.2711 126.588 18.4278C126.588 28.3129 119.524 34.7546 109.194 34.7546H95.5469L101.134 6.74805ZM109.391 29.4291C116.091 29.4291 120.041 24.8695 120.041 18.7853C120.041 14.6269 117.371 12.0663 112.104 12.0663H106.561L103.091 29.4291H109.398H109.391Z" fill="#1D1D1B"/>
<path d="M139.472 11.9496L138.272 18.0338H151.236L150.239 23.0749H137.232L135.959 29.5531H151.199L150.123 34.7546H128.502L134.089 6.74805H155.193L154.116 11.9496H139.472Z" fill="#1D1D1B"/>
<path d="M166.28 11.9496L164.803 19.3543H177.766L176.69 24.5558H163.806L161.769 34.7546H155.266L160.853 6.74805H181.957L180.88 11.9496H166.28Z" fill="#1D1D1B"/>
<path d="M210.641 23.0749C210.641 13.5108 217.624 6.27393 227.998 6.27393C232.945 6.27393 236.975 8.03209 238.969 11.2347L234.298 15.072C232.865 12.9491 230.624 11.7892 227.554 11.7892C221.255 11.7892 217.181 16.6332 217.181 22.6737C217.181 26.9123 219.974 29.7136 225.001 29.7136C227.831 29.7136 230.348 28.7142 232.421 26.4745L236.248 30.3921C233.294 33.8355 229.228 35.2362 224.441 35.2362C215.9 35.2362 210.641 30.2754 210.641 23.0749Z" fill="#1D1D1B"/>
<path d="M249.015 12.0298H240.082L241.159 6.74805H265.493L264.416 12.0298H255.519L250.972 34.7546H244.512L249.023 12.0298H249.015Z" fill="#1D1D1B"/>
<path d="M264.816 25.4312C264.816 24.4683 264.94 23.4688 265.136 22.4329L268.25 6.74805H274.754L271.64 22.3089C271.48 23.1916 271.4 23.9503 271.4 24.6725C271.4 28.0721 273.313 29.7136 276.783 29.7136C280.69 29.7136 282.967 27.5542 284.044 22.3089L287.157 6.74805H293.501L290.351 22.7101C288.678 30.9902 283.927 35.2361 276.07 35.2361C269.05 35.2361 264.824 31.4717 264.824 25.4312H264.816Z" fill="#1D1D1B"/>
<path d="M296.25 25.4312C296.25 24.4683 296.374 23.4688 296.57 22.4329L299.684 6.74805H306.187L303.074 22.3089C302.914 23.1916 302.834 23.9503 302.834 24.6725C302.834 28.0721 304.747 29.7136 308.217 29.7136C312.124 29.7136 314.401 27.5542 315.477 22.3089L318.591 6.74805H324.934L321.784 22.7101C320.111 30.9902 315.361 35.2361 307.504 35.2361C300.484 35.2361 296.257 31.4717 296.257 25.4312H296.25Z" fill="#1D1D1B"/>
<path d="M345.683 26.1097L350.549 34.7546H343.726L339.339 26.9122H333.832L332.275 34.7546H325.771L331.358 6.74805H342.729C349.669 6.74805 353.663 9.95067 353.663 15.4294C353.663 20.9082 350.673 24.5485 345.683 26.1097ZM347.116 16.0276C347.116 13.3065 345.202 12.0298 341.892 12.0298H336.785L334.829 21.7544H340.336C344.606 21.7544 347.116 19.7555 347.116 16.0349V16.0276Z" fill="#1D1D1B"/>
<path d="M370.49 14.2331C370.49 12.5916 369.13 11.5119 366.62 11.5119C364.11 11.5119 361.869 12.6354 360.356 14.5541L356.166 11.4755C358.523 8.3166 362.706 6.27393 367.893 6.27393C373.516 6.27393 377.146 8.91481 377.146 12.9929C377.146 19.9526 369.29 20.4705 368.213 25.0374H362.19C363.346 19.0771 370.49 18.3987 370.49 14.2331ZM360.08 31.7126C360.08 29.4729 361.833 27.8752 364.11 27.8752C366.227 27.8752 367.74 29.3124 367.74 31.1581C367.74 33.3613 365.987 35.0757 363.754 35.0757C361.52 35.0757 360.087 33.5583 360.087 31.7126H360.08Z" fill="#1D1D1B"/>
<path d="M377.516 31.7125C377.516 29.4728 379.269 27.8752 381.546 27.8752C383.663 27.8752 385.176 29.3123 385.176 31.158C385.176 33.3612 383.423 35.0756 381.189 35.0756C378.956 35.0756 377.523 33.5582 377.523 31.7125H377.516ZM382.579 6.74805H389.999L385.089 25.03H380.142L382.579 6.74805Z" fill="#1D1D1B"/>
<path d="M195.881 12.5582L190 39.5L196.979 33.8966H207.251L198.565 0L175.934 33.8966H185.965L195.881 12.5582Z" fill="white"/>
</g>
<defs>
<clipPath id="clip0_31_11808">
<rect width="390" height="40" fill="white"/>
</clipPath>
</defs>
</svg>
