<svg width="181" height="26" viewBox="0 0 181 26" fill="none" xmlns="http://www.w3.org/2000/svg">
<g clip-path="url(#clip0_118_602)" filter="url(#filter0_d_118_602)">
<path d="M23.8203 3.03662L17.2727 15.6396H14.2103L13.1292 7.15991L8.65335 15.6396H5.57478L4 3.03662H6.83009L7.92727 11.8938L12.5838 3.03662H15.2397L16.3014 11.966L20.9741 3.03662H23.8235H23.8203Z" fill="white"/>
<path d="M31.3235 12.9378H25.5536L23.9433 15.6396H20.8809L28.9 3.03662H31.7301L34.7731 15.6396H31.9076L31.3235 12.9378ZM30.8459 10.7218L29.8003 5.85989L26.8799 10.7218H30.8426H30.8459Z" fill="white"/>
<path d="M40.0135 5.41342H36.0508L36.5284 3.03662H47.3227L46.8451 5.41342H42.8985L40.8816 15.6396H38.016L40.0168 5.41342H40.0135Z" fill="white"/>
<path d="M48.8612 3.03662H54.047C57.871 3.03662 60.1525 5.072 60.1525 8.2925C60.1525 12.7408 57.019 15.6396 52.4367 15.6396H46.3828L48.8612 3.03662ZM52.5238 13.2431C55.4959 13.2431 57.2482 11.1913 57.2482 8.45336C57.2482 6.58213 56.0638 5.42984 53.7275 5.42984H51.2685L49.7292 13.2431H52.527H52.5238Z" fill="white"/>
<path d="M65.8683 5.37731L65.3358 8.11523H71.0864L70.6443 10.3837H64.8744L64.3096 13.2989H71.0702L70.5926 15.6396H61.002L63.4803 3.03662H72.8419L72.3643 5.37731H65.8683Z" fill="white"/>
<path d="M77.7607 5.37731L77.1056 8.70943H82.8561L82.3785 11.0501H76.6635L75.7599 15.6396H72.875L75.3533 3.03662H84.7149L84.2373 5.37731H77.7607Z" fill="white"/>
<path d="M97.4375 10.3837C97.4375 6.07985 100.535 2.82324 105.137 2.82324C107.332 2.82324 109.119 3.61441 110.003 5.0556L107.932 6.78239C107.296 5.82707 106.302 5.30509 104.94 5.30509C102.146 5.30509 100.339 7.48492 100.339 10.2031C100.339 12.1105 101.578 13.3711 103.808 13.3711C105.063 13.3711 106.179 12.9214 107.099 11.9135L108.797 13.6764C107.486 15.2259 105.683 15.8563 103.559 15.8563C99.7706 15.8563 97.4375 13.6239 97.4375 10.3837Z" fill="white"/>
<path d="M114.461 5.41342H110.498L110.976 3.03662H121.77L121.292 5.41342H117.346L115.329 15.6396H112.463L114.464 5.41342H114.461Z" fill="white"/>
<path d="M121.469 11.4441C121.469 11.0107 121.524 10.561 121.611 10.0948L122.992 3.03662H125.877L124.496 10.039C124.425 10.4362 124.389 10.7776 124.389 11.1026C124.389 12.6325 125.238 13.3711 126.777 13.3711C128.51 13.3711 129.52 12.3994 129.998 10.039L131.379 3.03662H134.193L132.796 10.2195C132.053 13.9456 129.946 15.8562 126.461 15.8562C123.347 15.8562 121.472 14.1623 121.472 11.4441H121.469Z" fill="white"/>
<path d="M135.414 11.4441C135.414 11.0107 135.469 10.561 135.556 10.0948L136.937 3.03662H139.822L138.441 10.039C138.37 10.4362 138.335 10.7776 138.335 11.1026C138.335 12.6325 139.183 13.3711 140.722 13.3711C142.455 13.3711 143.465 12.3994 143.943 10.039L145.324 3.03662H148.138L146.741 10.2195C145.999 13.9456 143.891 15.8562 140.406 15.8562C137.292 15.8562 135.417 14.1623 135.417 11.4441H135.414Z" fill="white"/>
<path d="M157.34 11.7494L159.499 15.6396H156.472L154.526 12.1105H152.083L151.393 15.6396H148.508L150.986 3.03662H156.03C159.109 3.03662 160.88 4.4778 160.88 6.94324C160.88 9.40868 159.554 11.0468 157.34 11.7494ZM157.976 7.21244C157.976 5.98792 157.127 5.41342 155.659 5.41342H153.394L152.525 9.78949H154.968C156.863 9.78949 157.976 8.88999 157.976 7.21572V7.21244Z" fill="white"/>
<path d="M168.344 6.40486C168.344 5.66621 167.741 5.18035 166.627 5.18035C165.514 5.18035 164.52 5.68591 163.849 6.5493L161.99 5.16393C163.036 3.74245 164.891 2.82324 167.192 2.82324C169.687 2.82324 171.297 4.01164 171.297 5.84677C171.297 8.97863 167.812 9.21172 167.334 11.2668H164.662C165.175 8.58469 168.344 8.27938 168.344 6.40486ZM163.726 14.2706C163.726 13.2628 164.504 12.5438 165.514 12.5438C166.453 12.5438 167.124 13.1906 167.124 14.0211C167.124 15.0126 166.347 15.784 165.356 15.784C164.365 15.784 163.73 15.1012 163.73 14.2706H163.726Z" fill="white"/>
<path d="M171.463 14.2706C171.463 13.2628 172.241 12.5438 173.251 12.5438C174.19 12.5438 174.861 13.1906 174.861 14.0211C174.861 15.0125 174.083 15.784 173.093 15.784C172.102 15.784 171.466 15.1012 171.466 14.2706H171.463ZM173.709 3.03662H177L174.822 11.2635H172.628L173.709 3.03662Z" fill="white"/>
<path d="M90.8914 5.79427L91.3787 15.6396H95.9353L92.0822 0L82.043 15.6396H86.493L90.8914 5.79427Z" fill="#74EE8C"/>
<path d="M91.377 15.6395L88.3984 17.9999L90.8897 5.79419" fill="#74EE8C"/>
</g>
<defs>
<filter id="filter0_d_118_602" x="0" y="0" width="181" height="26" filterUnits="userSpaceOnUse" color-interpolation-filters="sRGB">
<feFlood flood-opacity="0" result="BackgroundImageFix"/>
<feColorMatrix in="SourceAlpha" type="matrix" values="0 0 0 0 0 0 0 0 0 0 0 0 0 0 0 0 0 0 127 0" result="hardAlpha"/>
<feOffset dy="4"/>
<feGaussianBlur stdDeviation="2"/>
<feComposite in2="hardAlpha" operator="out"/>
<feColorMatrix type="matrix" values="0 0 0 0 0 0 0 0 0 0 0 0 0 0 0 0 0 0 0.25 0"/>
<feBlend mode="normal" in2="BackgroundImageFix" result="effect1_dropShadow_118_602"/>
<feBlend mode="normal" in="SourceGraphic" in2="effect1_dropShadow_118_602" result="shape"/>
</filter>
<clipPath id="clip0_118_602">
<rect width="173" height="18" fill="white" transform="translate(4)"/>
</clipPath>
</defs>
</svg>
