<svg width="173" height="18" viewBox="0 0 173 18" fill="none" xmlns="http://www.w3.org/2000/svg">
<path d="M19.8203 3.03711L13.2727 15.6401H10.2103L9.12921 7.1604L4.65335 15.6401H1.57478L0 3.03711H2.83009L3.92727 11.8943L8.58385 3.03711H11.2397L12.3014 11.9665L16.9741 3.03711H19.8235H19.8203Z" fill="black"/>
<path d="M27.3235 12.9383H21.5536L19.9433 15.6401H16.8809L24.9 3.03711H27.7301L30.7731 15.6401H27.9076L27.3235 12.9383ZM26.8459 10.7223L25.8003 5.86038L22.8799 10.7223H26.8426H26.8459Z" fill="black"/>
<path d="M36.0135 5.41391H32.0508L32.5284 3.03711H43.3227L42.8451 5.41391H38.8985L36.8816 15.6401H34.016L36.0168 5.41391H36.0135Z" fill="black"/>
<path d="M44.8612 3.03711H50.047C53.871 3.03711 56.1525 5.07249 56.1525 8.29299C56.1525 12.7413 53.019 15.6401 48.4367 15.6401H42.3828L44.8612 3.03711ZM48.5238 13.2436C51.4959 13.2436 53.2482 11.1918 53.2482 8.45385C53.2482 6.58261 52.0638 5.43032 49.7275 5.43032H47.2685L45.7292 13.2436H48.527H48.5238Z" fill="black"/>
<path d="M61.8683 5.3778L61.3358 8.11572H67.0864L66.6443 10.3842H60.8744L60.3096 13.2994H67.0702L66.5926 15.6401H57.002L59.4803 3.03711H68.8419L68.3643 5.3778H61.8683Z" fill="black"/>
<path d="M73.7607 5.3778L73.1056 8.70992H78.8561L78.3785 11.0506H72.6635L71.7599 15.6401H68.875L71.3533 3.03711H80.7149L80.2373 5.3778H73.7607Z" fill="black"/>
<path d="M93.4375 10.3837C93.4375 6.07985 96.5354 2.82324 101.137 2.82324C103.332 2.82324 105.119 3.61441 106.003 5.0556L103.932 6.78239C103.296 5.82707 102.302 5.30509 100.94 5.30509C98.1457 5.30509 96.3386 7.48492 96.3386 10.2031C96.3386 12.1105 97.5778 13.3711 99.8076 13.3711C101.063 13.3711 102.179 12.9214 103.099 11.9135L104.797 13.6764C103.486 15.2259 101.683 15.8563 99.5591 15.8563C95.7706 15.8563 93.4375 13.6239 93.4375 10.3837Z" fill="black"/>
<path d="M110.461 5.41391H106.498L106.976 3.03711H117.77L117.292 5.41391H113.346L111.329 15.6401H108.463L110.464 5.41391H110.461Z" fill="black"/>
<path d="M117.469 11.4446C117.469 11.0112 117.524 10.5615 117.611 10.0953L118.992 3.03711H121.877L120.496 10.0395C120.425 10.4367 120.389 10.7781 120.389 11.1031C120.389 12.633 121.238 13.3716 122.777 13.3716C124.51 13.3716 125.52 12.3999 125.998 10.0395L127.379 3.03711H130.193L128.796 10.22C128.053 13.9461 125.946 15.8567 122.461 15.8567C119.347 15.8567 117.472 14.1628 117.472 11.4446H117.469Z" fill="black"/>
<path d="M131.414 11.4446C131.414 11.0112 131.469 10.5615 131.556 10.0953L132.937 3.03711H135.822L134.441 10.0395C134.37 10.4367 134.335 10.7781 134.335 11.1031C134.335 12.633 135.183 13.3716 136.722 13.3716C138.455 13.3716 139.465 12.3999 139.943 10.0395L141.324 3.03711H144.138L142.741 10.22C141.999 13.9461 139.891 15.8567 136.406 15.8567C133.292 15.8567 131.417 14.1628 131.417 11.4446H131.414Z" fill="black"/>
<path d="M153.34 11.7499L155.499 15.6401H152.472L150.526 12.111H148.083L147.393 15.6401H144.508L146.986 3.03711H152.03C155.109 3.03711 156.88 4.47829 156.88 6.94373C156.88 9.40917 155.554 11.0473 153.34 11.7499ZM153.976 7.21293C153.976 5.98841 153.127 5.41391 151.659 5.41391H149.394L148.525 9.78998H150.968C152.863 9.78998 153.976 8.89047 153.976 7.21621V7.21293Z" fill="black"/>
<path d="M164.344 6.40486C164.344 5.66621 163.741 5.18035 162.627 5.18035C161.514 5.18035 160.52 5.68591 159.849 6.5493L157.99 5.16393C159.036 3.74245 160.891 2.82324 163.192 2.82324C165.687 2.82324 167.297 4.01164 167.297 5.84677C167.297 8.97863 163.812 9.21172 163.334 11.2668H160.662C161.175 8.58469 164.344 8.27938 164.344 6.40486ZM159.726 14.2706C159.726 13.2628 160.504 12.5438 161.514 12.5438C162.453 12.5438 163.124 13.1906 163.124 14.0211C163.124 15.0126 162.347 15.784 161.356 15.784C160.365 15.784 159.73 15.1012 159.73 14.2706H159.726Z" fill="black"/>
<path d="M167.463 14.2711C167.463 13.2633 168.241 12.5443 169.251 12.5443C170.19 12.5443 170.861 13.191 170.861 14.0216C170.861 15.013 170.083 15.7845 169.093 15.7845C168.102 15.7845 167.466 15.1017 167.466 14.2711H167.463ZM169.709 3.03711H173L170.822 11.264H168.628L169.709 3.03711Z" fill="black"/>
<path d="M86.8914 5.79427L84.5 17.5L87.3787 15.6396H91.9353L88.0822 0L78.043 15.6396H82.493L86.8914 5.79427Z" fill="#5238E9"/>
</svg>
